<mxfile host="Electron" modified="2023-08-11T07:55:01.385Z" agent="Mozilla/5.0 (X11; Linux x86_64) AppleWebKit/537.36 (KHTML, like Gecko) draw.io/21.6.5 Chrome/114.0.5735.243 Electron/25.3.1 Safari/537.36" etag="kPaNJhPEDh6fQCYOrgYz" version="21.6.5" type="device">
  <diagram name="第 1 页" id="Wj_qt_pBEaR42uxyCGTG">
    <mxGraphModel dx="1532" dy="1138" grid="1" gridSize="10" guides="1" tooltips="1" connect="1" arrows="1" fold="1" page="0" pageScale="1" pageWidth="827" pageHeight="1169" math="0" shadow="0">
      <root>
        <mxCell id="0" />
        <mxCell id="1" parent="0" />
        <mxCell id="N9-ScfybE1kKiHlQ_AFS-32" value="" style="rounded=0;whiteSpace=wrap;html=1;fontSize=16;fillColor=#fff2cc;strokeColor=#d6b656;opacity=50;" vertex="1" parent="1">
          <mxGeometry x="-80" y="-40" width="640" height="220" as="geometry" />
        </mxCell>
        <mxCell id="N9-ScfybE1kKiHlQ_AFS-34" value="" style="rounded=0;whiteSpace=wrap;html=1;fontSize=16;fillColor=#ffe6cc;strokeColor=#d79b00;opacity=50;" vertex="1" parent="1">
          <mxGeometry x="-80" y="210" width="640" height="230" as="geometry" />
        </mxCell>
        <mxCell id="N9-ScfybE1kKiHlQ_AFS-31" value="" style="rounded=0;whiteSpace=wrap;html=1;fontSize=16;fillColor=#dae8fc;strokeColor=#6c8ebf;opacity=50;" vertex="1" parent="1">
          <mxGeometry x="100" y="120" width="290" height="150" as="geometry" />
        </mxCell>
        <mxCell id="N9-ScfybE1kKiHlQ_AFS-36" value="" style="rounded=0;whiteSpace=wrap;html=1;fontSize=16;fillColor=#1ba1e2;strokeColor=#006EAF;opacity=50;fontColor=#ffffff;" vertex="1" parent="1">
          <mxGeometry x="-60" y="310" width="600" height="110" as="geometry" />
        </mxCell>
        <mxCell id="N9-ScfybE1kKiHlQ_AFS-35" value="" style="rounded=0;whiteSpace=wrap;html=1;fontSize=16;fillColor=#1ba1e2;strokeColor=#006EAF;opacity=50;fontColor=#ffffff;" vertex="1" parent="1">
          <mxGeometry x="-60" y="-20" width="600" height="110" as="geometry" />
        </mxCell>
        <mxCell id="N9-ScfybE1kKiHlQ_AFS-10" value="" style="edgeStyle=none;curved=1;rounded=0;orthogonalLoop=1;jettySize=auto;html=1;fontSize=12;startSize=8;endSize=8;" edge="1" parent="1" source="N9-ScfybE1kKiHlQ_AFS-1" target="N9-ScfybE1kKiHlQ_AFS-7">
          <mxGeometry relative="1" as="geometry" />
        </mxCell>
        <mxCell id="N9-ScfybE1kKiHlQ_AFS-11" style="edgeStyle=none;curved=1;rounded=0;orthogonalLoop=1;jettySize=auto;html=1;fontSize=12;startSize=8;endSize=8;" edge="1" parent="1" source="N9-ScfybE1kKiHlQ_AFS-1" target="N9-ScfybE1kKiHlQ_AFS-6">
          <mxGeometry relative="1" as="geometry" />
        </mxCell>
        <mxCell id="N9-ScfybE1kKiHlQ_AFS-14" style="edgeStyle=none;curved=1;rounded=0;orthogonalLoop=1;jettySize=auto;html=1;fontSize=12;startSize=8;endSize=8;" edge="1" parent="1" source="N9-ScfybE1kKiHlQ_AFS-1" target="N9-ScfybE1kKiHlQ_AFS-3">
          <mxGeometry relative="1" as="geometry" />
        </mxCell>
        <mxCell id="N9-ScfybE1kKiHlQ_AFS-16" value="脱氧" style="edgeLabel;html=1;align=center;verticalAlign=middle;resizable=0;points=[];fontSize=12;labelBackgroundColor=none;" vertex="1" connectable="0" parent="N9-ScfybE1kKiHlQ_AFS-14">
          <mxGeometry x="0.0289" relative="1" as="geometry">
            <mxPoint y="-6" as="offset" />
          </mxGeometry>
        </mxCell>
        <mxCell id="N9-ScfybE1kKiHlQ_AFS-1" value="胆酸" style="text;html=1;align=center;verticalAlign=middle;resizable=0;points=[];autosize=1;strokeColor=none;fillColor=none;fontSize=16;" vertex="1" parent="1">
          <mxGeometry x="120" y="140" width="60" height="30" as="geometry" />
        </mxCell>
        <mxCell id="N9-ScfybE1kKiHlQ_AFS-12" style="edgeStyle=none;curved=1;rounded=0;orthogonalLoop=1;jettySize=auto;html=1;fontSize=12;startSize=8;endSize=8;" edge="1" parent="1" source="N9-ScfybE1kKiHlQ_AFS-2" target="N9-ScfybE1kKiHlQ_AFS-8">
          <mxGeometry relative="1" as="geometry" />
        </mxCell>
        <mxCell id="N9-ScfybE1kKiHlQ_AFS-13" style="edgeStyle=none;curved=1;rounded=0;orthogonalLoop=1;jettySize=auto;html=1;fontSize=12;startSize=8;endSize=8;" edge="1" parent="1" source="N9-ScfybE1kKiHlQ_AFS-2" target="N9-ScfybE1kKiHlQ_AFS-9">
          <mxGeometry relative="1" as="geometry" />
        </mxCell>
        <mxCell id="N9-ScfybE1kKiHlQ_AFS-15" style="edgeStyle=none;curved=1;rounded=0;orthogonalLoop=1;jettySize=auto;html=1;fontSize=12;startSize=8;endSize=8;" edge="1" parent="1" source="N9-ScfybE1kKiHlQ_AFS-2" target="N9-ScfybE1kKiHlQ_AFS-4">
          <mxGeometry relative="1" as="geometry" />
        </mxCell>
        <mxCell id="N9-ScfybE1kKiHlQ_AFS-17" value="脱氧" style="edgeLabel;html=1;align=center;verticalAlign=middle;resizable=0;points=[];fontSize=12;labelBackgroundColor=none;" vertex="1" connectable="0" parent="N9-ScfybE1kKiHlQ_AFS-15">
          <mxGeometry x="-0.1145" y="4" relative="1" as="geometry">
            <mxPoint x="-4" y="-2" as="offset" />
          </mxGeometry>
        </mxCell>
        <mxCell id="N9-ScfybE1kKiHlQ_AFS-2" value="鹅脱氧胆酸" style="text;html=1;align=center;verticalAlign=middle;resizable=0;points=[];autosize=1;strokeColor=none;fillColor=none;fontSize=16;" vertex="1" parent="1">
          <mxGeometry x="260" y="140" width="100" height="30" as="geometry" />
        </mxCell>
        <mxCell id="N9-ScfybE1kKiHlQ_AFS-24" style="edgeStyle=none;curved=1;rounded=0;orthogonalLoop=1;jettySize=auto;html=1;fontSize=12;startSize=8;endSize=8;" edge="1" parent="1" source="N9-ScfybE1kKiHlQ_AFS-3" target="N9-ScfybE1kKiHlQ_AFS-20">
          <mxGeometry relative="1" as="geometry" />
        </mxCell>
        <mxCell id="N9-ScfybE1kKiHlQ_AFS-26" style="edgeStyle=none;curved=1;rounded=0;orthogonalLoop=1;jettySize=auto;html=1;fontSize=12;startSize=8;endSize=8;" edge="1" parent="1" source="N9-ScfybE1kKiHlQ_AFS-3" target="N9-ScfybE1kKiHlQ_AFS-19">
          <mxGeometry relative="1" as="geometry" />
        </mxCell>
        <mxCell id="N9-ScfybE1kKiHlQ_AFS-3" value="脱氧胆酸" style="text;html=1;align=center;verticalAlign=middle;resizable=0;points=[];autosize=1;strokeColor=none;fillColor=none;fontSize=16;" vertex="1" parent="1">
          <mxGeometry x="105" y="230" width="90" height="30" as="geometry" />
        </mxCell>
        <mxCell id="N9-ScfybE1kKiHlQ_AFS-23" style="edgeStyle=none;curved=1;rounded=0;orthogonalLoop=1;jettySize=auto;html=1;fontSize=12;startSize=8;endSize=8;" edge="1" parent="1" source="N9-ScfybE1kKiHlQ_AFS-4" target="N9-ScfybE1kKiHlQ_AFS-22">
          <mxGeometry relative="1" as="geometry" />
        </mxCell>
        <mxCell id="N9-ScfybE1kKiHlQ_AFS-25" style="edgeStyle=none;curved=1;rounded=0;orthogonalLoop=1;jettySize=auto;html=1;fontSize=12;startSize=8;endSize=8;" edge="1" parent="1" source="N9-ScfybE1kKiHlQ_AFS-4" target="N9-ScfybE1kKiHlQ_AFS-21">
          <mxGeometry relative="1" as="geometry" />
        </mxCell>
        <mxCell id="N9-ScfybE1kKiHlQ_AFS-4" value="石胆酸" style="text;html=1;align=center;verticalAlign=middle;resizable=0;points=[];autosize=1;strokeColor=none;fillColor=none;fontSize=16;" vertex="1" parent="1">
          <mxGeometry x="275" y="230" width="70" height="30" as="geometry" />
        </mxCell>
        <mxCell id="N9-ScfybE1kKiHlQ_AFS-6" value="甘氨胆酸" style="text;html=1;align=center;verticalAlign=middle;resizable=0;points=[];autosize=1;strokeColor=none;fillColor=none;fontSize=16;" vertex="1" parent="1">
          <mxGeometry x="-40" y="20" width="90" height="30" as="geometry" />
        </mxCell>
        <mxCell id="N9-ScfybE1kKiHlQ_AFS-7" value="牛磺胆酸" style="text;html=1;align=center;verticalAlign=middle;resizable=0;points=[];autosize=1;strokeColor=none;fillColor=none;fontSize=16;" vertex="1" parent="1">
          <mxGeometry x="110" y="20" width="90" height="30" as="geometry" />
        </mxCell>
        <mxCell id="N9-ScfybE1kKiHlQ_AFS-8" value="甘氨鹅脱氧胆酸" style="text;html=1;align=center;verticalAlign=middle;resizable=0;points=[];autosize=1;strokeColor=none;fillColor=none;fontSize=16;" vertex="1" parent="1">
          <mxGeometry x="230" y="20" width="140" height="30" as="geometry" />
        </mxCell>
        <mxCell id="N9-ScfybE1kKiHlQ_AFS-9" value="牛磺鹅脱氧胆酸" style="text;html=1;align=center;verticalAlign=middle;resizable=0;points=[];autosize=1;strokeColor=none;fillColor=none;fontSize=16;" vertex="1" parent="1">
          <mxGeometry x="380" y="20" width="140" height="30" as="geometry" />
        </mxCell>
        <mxCell id="N9-ScfybE1kKiHlQ_AFS-19" value="甘氨脱氧胆酸" style="text;html=1;align=center;verticalAlign=middle;resizable=0;points=[];autosize=1;strokeColor=none;fillColor=none;fontSize=16;" vertex="1" parent="1">
          <mxGeometry x="-30" y="360" width="120" height="30" as="geometry" />
        </mxCell>
        <mxCell id="N9-ScfybE1kKiHlQ_AFS-20" value="牛磺脱氧胆酸" style="text;html=1;align=center;verticalAlign=middle;resizable=0;points=[];autosize=1;strokeColor=none;fillColor=none;fontSize=16;" vertex="1" parent="1">
          <mxGeometry x="120" y="360" width="120" height="30" as="geometry" />
        </mxCell>
        <mxCell id="N9-ScfybE1kKiHlQ_AFS-21" value="甘氨石胆酸" style="text;html=1;align=center;verticalAlign=middle;resizable=0;points=[];autosize=1;strokeColor=none;fillColor=none;fontSize=16;" vertex="1" parent="1">
          <mxGeometry x="250" y="360" width="100" height="30" as="geometry" />
        </mxCell>
        <mxCell id="N9-ScfybE1kKiHlQ_AFS-22" value="牛磺石胆酸" style="text;html=1;align=center;verticalAlign=middle;resizable=0;points=[];autosize=1;strokeColor=none;fillColor=none;fontSize=16;" vertex="1" parent="1">
          <mxGeometry x="400" y="360" width="100" height="30" as="geometry" />
        </mxCell>
        <mxCell id="N9-ScfybE1kKiHlQ_AFS-37" value="游离胆汁酸" style="rounded=0;whiteSpace=wrap;html=1;fontSize=16;fillColor=#dae8fc;strokeColor=#6c8ebf;opacity=50;" vertex="1" parent="1">
          <mxGeometry x="-80" y="460" width="150" height="40" as="geometry" />
        </mxCell>
        <mxCell id="N9-ScfybE1kKiHlQ_AFS-38" value="&lt;font color=&quot;#000000&quot;&gt;结合胆汁酸&lt;/font&gt;" style="rounded=0;whiteSpace=wrap;html=1;fontSize=16;fillColor=#1ba1e2;strokeColor=#006EAF;opacity=50;fontColor=#ffffff;" vertex="1" parent="1">
          <mxGeometry x="80" y="460" width="150" height="40" as="geometry" />
        </mxCell>
        <mxCell id="N9-ScfybE1kKiHlQ_AFS-39" value="初级胆汁酸" style="rounded=0;whiteSpace=wrap;html=1;fontSize=16;fillColor=#fff2cc;strokeColor=#d6b656;opacity=50;" vertex="1" parent="1">
          <mxGeometry x="250" y="460" width="150" height="40" as="geometry" />
        </mxCell>
        <mxCell id="N9-ScfybE1kKiHlQ_AFS-40" value="次级胆汁酸" style="rounded=0;whiteSpace=wrap;html=1;fontSize=16;fillColor=#ffe6cc;strokeColor=#d79b00;opacity=50;" vertex="1" parent="1">
          <mxGeometry x="410" y="460" width="150" height="40" as="geometry" />
        </mxCell>
      </root>
    </mxGraphModel>
  </diagram>
</mxfile>
